<svg version="1.0" xmlns="http://www.w3.org/2000/svg" width="700pt" height="700pt" viewBox="0 0 700 700"><g transform="translate(0.000000,700.000000) scale(0.100000,-0.100000)" fill="#000" stroke="none"><path d="M875 4960c0-159 2-290 5-291 15-3 3177-4 3190-1s15 43 15 290l-1 287-1604 3-1605 2v-290z"/><path d="M877 4075c-2-5-3-136-3-290l1-280h1605 1604l1 283c0 156-2 287-5 290-9 12-3199 8-3203-3z"/><path d="M5585 3526c-22-7-51-19-65-26-30-16-260-239-260-252 0-5 138-147 306-316l307-306 126 130c138 142 166 190 164 287-3 108-29 149-196 314-148 146-193 175-287 179-30 1-73-3-95-10z"/><path d="M4272 2267l-772-772v-310-311l310 1h310l772 772 773 773-310 310-310 310-773-773z"/><path d="M879 2916c-3-2-5-562-2-572 3-8 295-11 1021-10l1017 1v290 290l-1017 1c-560 0-1019 0-1019 0z"/></g></svg>