<?xml version="1.0" standalone="no"?>
<!DOCTYPE svg PUBLIC "-//W3C//DTD SVG 20010904//EN"
 "http://www.w3.org/TR/2001/REC-SVG-20010904/DTD/svg10.dtd">
<svg version="1.0" xmlns="http://www.w3.org/2000/svg"
 width="700.000000pt" height="700.000000pt" viewBox="0 0 700.000000 700.000000"
 preserveAspectRatio="xMidYMid meet">
<metadata>
Created by potrace 1.14, written by Peter Selinger 2001-2017
</metadata>
<g transform="translate(0.000000,700.000000) scale(0.100000,-0.100000)"
fill="#000000" stroke="none">
<path d="M875 4960 c0 -159 2 -290 5 -291 15 -3 3177 -4 3190 -1 13 3 15 43
15 290 l-1 287 -1604 3 -1605 2 0 -290z"/>
<path d="M877 4075 c-2 -5 -3 -136 -3 -290 l1 -280 1605 0 1604 0 1 283 c0
156 -2 287 -5 290 -9 12 -3199 8 -3203 -3z"/>
<path d="M5585 3526 c-22 -7 -51 -19 -65 -26 -30 -16 -260 -239 -260 -252 0
-5 138 -147 306 -316 l307 -306 126 130 c138 142 166 190 164 287 -3 108 -29
149 -196 314 -148 146 -193 175 -287 179 -30 1 -73 -3 -95 -10z"/>
<path d="M4272 2267 l-772 -772 0 -310 0 -311 310 1 310 0 772 772 773 773
-310 310 -310 310 -773 -773z"/>
<path d="M879 2916 c-3 -2 -5 -562 -2 -572 3 -8 295 -11 1021 -10 l1017 1 0
290 0 290 -1017 1 c-560 0 -1019 0 -1019 0z"/>
</g>
</svg>
